<?xml version="1.0" encoding="UTF-8" standalone="no"?>
<!-- Created with Inkscape (http://www.inkscape.org/) -->

<svg
   width="210mm"
   height="297mm"
   viewBox="0 0 210 297"
   version="1.1"
   id="svg1"
   inkscape:version="1.3.2 (091e20e, 2023-11-25, custom)"
   sodipodi:docname="SS16.svg"
   inkscape:export-filename="SS16.png"
   inkscape:export-xdpi="200"
   inkscape:export-ydpi="200"
   xmlns:inkscape="http://www.inkscape.org/namespaces/inkscape"
   xmlns:sodipodi="http://sodipodi.sourceforge.net/DTD/sodipodi-0.dtd"
   xmlns="http://www.w3.org/2000/svg"
   xmlns:svg="http://www.w3.org/2000/svg">
  <sodipodi:namedview
     id="namedview1"
     pagecolor="#ffffff"
     bordercolor="#666666"
     borderopacity="1.0"
     inkscape:showpageshadow="2"
     inkscape:pageopacity="0.0"
     inkscape:pagecheckerboard="0"
     inkscape:deskcolor="#d1d1d1"
     inkscape:document-units="mm"
     inkscape:zoom="0.66368547"
     inkscape:cx="346.5497"
     inkscape:cy="633.58325"
     inkscape:window-width="1920"
     inkscape:window-height="1001"
     inkscape:window-x="-9"
     inkscape:window-y="-9"
     inkscape:window-maximized="1"
     inkscape:current-layer="layer1" />
  <defs
     id="defs1" />
  <g
     inkscape:label="Layer 1"
     inkscape:groupmode="layer"
     id="layer1">
    <path
       inkscape:connector-curvature="0"
       style="display:inline;fill:#000000;fill-opacity:1;stroke:#000000;stroke-width:0.0867336;stroke-miterlimit:4;stroke-dasharray:none;stroke-opacity:1"
       d="m 105.98401,101.83795 c 0.28206,-3.623778 0.91301,-3.254968 2.12094,-4.445998 1.20793,-1.19103 -0.32136,-1.83426 -0.63223,-1.43959 -0.86195,0.3228 -3.03809,1.74896 -2.91298,5.993358 l -0.56456,33.18798 c -0.0559,0.6313 -0.0632,0.57817 -0.40562,0.92225 -1.36676,0.75298 -2.65578,2.25056 -2.65578,3.81743 h 0.007 v 79.89952 h -0.007 c 0,2.32326 1.88372,4.20646 4.20698,4.20646 2.32326,0 4.20647,-1.8832 4.20647,-4.20646 h -0.007 v -79.89952 c -0.0225,-1.83159 -1.53956,-3.30605 -2.70748,-3.86709 -0.41258,-0.27089 -0.594,-0.57801 -0.57279,-0.95915 z"
       id="path7891"
       sodipodi:nodetypes="czccccccccscccccc"
       inkscape:export-filename="SS16.png"
       inkscape:export-xdpi="200"
       inkscape:export-ydpi="200" />
  </g>
</svg>
