<?xml version="1.0" encoding="UTF-8" standalone="no"?>
<!-- Created with Inkscape (http://www.inkscape.org/) -->

<svg
   width="148mm"
   height="210mm"
   viewBox="0 0 148 210"
   version="1.1"
   id="svg1"
   inkscape:export-filename="SS3.png"
   inkscape:export-xdpi="96"
   inkscape:export-ydpi="96"
   inkscape:version="1.3.2 (091e20e, 2023-11-25, custom)"
   sodipodi:docname="SS3.svg"
   xmlns:inkscape="http://www.inkscape.org/namespaces/inkscape"
   xmlns:sodipodi="http://sodipodi.sourceforge.net/DTD/sodipodi-0.dtd"
   xmlns="http://www.w3.org/2000/svg"
   xmlns:svg="http://www.w3.org/2000/svg">
  <sodipodi:namedview
     id="namedview1"
     pagecolor="#ffffff"
     bordercolor="#000000"
     borderopacity="0.25"
     inkscape:showpageshadow="2"
     inkscape:pageopacity="0.0"
     inkscape:pagecheckerboard="0"
     inkscape:deskcolor="#d1d1d1"
     inkscape:document-units="mm"
     inkscape:export-bgcolor="#ffffffff"
     inkscape:zoom="0.65834035"
     inkscape:cx="397.21096"
     inkscape:cy="439.74215"
     inkscape:window-width="1920"
     inkscape:window-height="974"
     inkscape:window-x="-11"
     inkscape:window-y="-11"
     inkscape:window-maximized="1"
     inkscape:current-layer="layer1" />
  <defs
     id="defs1" />
  <g
     inkscape:label="Warstwa 1"
     inkscape:groupmode="layer"
     id="layer1">
    <path
       inkscape:connector-curvature="0"
       style="display:inline;fill:#000000;fill-opacity:1;stroke:#000000;stroke-width:0.0867336;stroke-miterlimit:4;stroke-dasharray:none;stroke-opacity:1"
       d="m 121.69236,104.21674 c -0.99568,-0.0923 -23.807773,-0.11693 -23.807773,-0.11693 -0.6313,-0.0559 -0.57816,-0.0632 -0.92224,-0.40562 -0.75299,-1.36676 -2.25057,-2.65578 -3.81743,-2.65578 v 0.007 H 13.245404 v -0.007 c -2.32326,0 -4.2064597,1.88372 -4.2064597,4.20698 0,2.32326 1.8831997,4.20647 4.2064597,4.20647 v -0.007 h 79.899513 c 1.83159,-0.0225 3.30606,-1.53956 3.86709,-2.70748 0.2709,-0.41258 0.53604,-0.57047 0.72661,-0.55987 0.17094,0.01 22.044013,-0.10551 22.912073,-0.0942 0.86807,0.0113 1.16983,-0.005 1.61212,0.22543 0.41925,0.22168 0.90743,0.58128 1.41843,1.00532 0.64615,0.5362 1.28935,0.40656 1.72179,0.009 0.40859,-0.37562 0.82784,-0.83873 1.49864,-1.47072 0.66944,-0.63072 1.35612,-0.42922 2.51338,0.21071 l 3.56989,1.9738 c 1.19405,0.66019 1.83989,0.59242 2.50293,0.0409 0.34953,-0.30359 1.60158,-1.51558 1.82532,-1.85365 0.46094,-0.75739 -0.99015,-1.28187 -1.47545,-0.64124 l -0.95089,0.90511 c -0.21104,0.20089 -0.60671,0.3911 -1.19292,0.0407 -0.58621,-0.35043 -3.25333,-1.68611 -4.18134,-2.21224 -0.92801,-0.52614 -2.25794,-0.83282 -3.16997,-0.0844 -0.28533,0.23427 -0.88851,0.87255 -1.37721,1.1597 -0.41133,0.24169 -0.77532,0.27925 -1.25597,-0.0348 -0.48066,-0.3142 -1.0214,-1.04829 -2.01708,-1.14061 z"
       id="path938"
       sodipodi:nodetypes="cccccccsccccszcssssscccszzsszzc"
       inkscape:export-filename="SS3.png"
       inkscape:export-xdpi="96"
       inkscape:export-ydpi="96" />
  </g>
</svg>
