<?xml version="1.0" encoding="UTF-8" standalone="no"?>
<!-- Created with Inkscape (http://www.inkscape.org/) -->

<svg
   width="148mm"
   height="210mm"
   viewBox="0 0 148 210"
   version="1.1"
   id="svg1"
   inkscape:export-filename="SS3.png"
   inkscape:export-xdpi="96"
   inkscape:export-ydpi="96"
   inkscape:version="1.3.2 (091e20e, 2023-11-25, custom)"
   sodipodi:docname="SS4.svg"
   xmlns:inkscape="http://www.inkscape.org/namespaces/inkscape"
   xmlns:sodipodi="http://sodipodi.sourceforge.net/DTD/sodipodi-0.dtd"
   xmlns="http://www.w3.org/2000/svg"
   xmlns:svg="http://www.w3.org/2000/svg">
  <sodipodi:namedview
     id="namedview1"
     pagecolor="#ffffff"
     bordercolor="#000000"
     borderopacity="0.25"
     inkscape:showpageshadow="2"
     inkscape:pageopacity="0.0"
     inkscape:pagecheckerboard="0"
     inkscape:deskcolor="#d1d1d1"
     inkscape:document-units="mm"
     inkscape:export-bgcolor="#ffffffff"
     inkscape:zoom="0.65834035"
     inkscape:cx="397.21096"
     inkscape:cy="439.74215"
     inkscape:window-width="1920"
     inkscape:window-height="974"
     inkscape:window-x="-11"
     inkscape:window-y="-11"
     inkscape:window-maximized="1"
     inkscape:current-layer="layer1" />
  <defs
     id="defs1" />
  <g
     inkscape:label="Warstwa 1"
     inkscape:groupmode="layer"
     id="layer1">
    <path
       sodipodi:nodetypes="cccccccsccccccssssssczssssscc"
       id="path936"
       d="m 126.69293,101.70339 c -1.61441,-0.0171 -27.399281,-0.32364 -27.399281,-0.32364 -0.6313,-0.0559 -0.57816,-0.0632 -0.92224,-0.40562 -0.75299,-1.366756 -2.25057,-2.655776 -3.81744,-2.655776 v 0.007 H 14.654454 v -0.007 c -2.32326,0 -4.20646,1.883716 -4.20646,4.206976 0,2.32326 1.8832,4.20647 4.20646,4.20647 v -0.007 h 79.899525 c 1.83159,-0.0225 3.30605,-1.53956 3.86708,-2.70748 0.2709,-0.41258 0.57802,-0.594 0.95916,-0.57279 0,0 26.942621,-0.10224 27.353951,-0.1053 0.6015,-0.12949 1.50852,0.1381 2.02053,0.64862 0.78163,0.77936 1.30152,0.84416 1.93226,0.187 0.25395,-0.26458 0.63773,-0.84292 1.53763,0.084 0.38171,0.39317 1.1103,0.61601 1.86447,-0.13052 0.34131,-0.33786 0.64813,-0.62417 1.53545,0.14582 0.58658,0.50905 1.15816,1.01247 2.17676,0.12772 0.34952,-0.30359 0.80059,-0.7921 1.02433,-1.13017 0.46094,-0.75739 -0.39587,-1.20436 -0.88118,-0.56373 -0.4853,0.64063 -1.35509,1.25982 -2.06458,0.38743 -0.56986,-0.70071 -1.62809,-0.8123 -2.1401,-0.0819 -0.15125,0.21576 -0.81863,0.75147 -1.5236,-0.0766 -0.45153,-0.53039 -1.07078,-0.69276 -1.68301,-0.16429 -0.63501,0.54814 -1.06335,0.33272 -1.53721,-0.14989 -0.85923,-0.8751 -1.85111,-1.00387 -2.30299,-0.91938 z"
       style="display:inline;fill:#000000;fill-opacity:1;stroke:#000000;stroke-width:0.0867336;stroke-miterlimit:4;stroke-dasharray:none;stroke-opacity:1"
       inkscape:connector-curvature="0" />
  </g>
</svg>
