<?xml version="1.0" encoding="UTF-8" standalone="no"?>
<!-- Created with Inkscape (http://www.inkscape.org/) -->

<svg
   width="148mm"
   height="210mm"
   viewBox="0 0 148 210"
   version="1.1"
   id="svg1"
   inkscape:export-filename="SS3.png"
   inkscape:export-xdpi="96"
   inkscape:export-ydpi="96"
   inkscape:version="1.3.2 (091e20e, 2023-11-25, custom)"
   sodipodi:docname="SS5.svg"
   xmlns:inkscape="http://www.inkscape.org/namespaces/inkscape"
   xmlns:sodipodi="http://sodipodi.sourceforge.net/DTD/sodipodi-0.dtd"
   xmlns="http://www.w3.org/2000/svg"
   xmlns:svg="http://www.w3.org/2000/svg">
  <sodipodi:namedview
     id="namedview1"
     pagecolor="#ffffff"
     bordercolor="#000000"
     borderopacity="0.25"
     inkscape:showpageshadow="2"
     inkscape:pageopacity="0.0"
     inkscape:pagecheckerboard="0"
     inkscape:deskcolor="#d1d1d1"
     inkscape:document-units="mm"
     inkscape:export-bgcolor="#ffffffff"
     inkscape:zoom="0.65834035"
     inkscape:cx="397.21096"
     inkscape:cy="439.74215"
     inkscape:window-width="1920"
     inkscape:window-height="974"
     inkscape:window-x="-11"
     inkscape:window-y="-11"
     inkscape:window-maximized="1"
     inkscape:current-layer="layer1" />
  <defs
     id="defs1" />
  <g
     inkscape:label="Warstwa 1"
     inkscape:groupmode="layer"
     id="layer1">
    <path
       inkscape:connector-curvature="0"
       style="display:inline;fill:#000000;fill-opacity:1;stroke:#000000;stroke-width:0.0867336;stroke-miterlimit:4;stroke-dasharray:none;stroke-opacity:1"
       d="m 126.39178,102.28115 c -1.61441,-0.0171 -30.085019,-0.23229 -30.085019,-0.23229 -0.6313,-0.0559 -0.57817,-0.0632 -0.92225,-0.40562 -0.75298,-1.36676 -2.25056,-2.655779 -3.817435,-2.655779 v 0.007 h -79.89952 v -0.007 c -2.32326,0 -4.20646,1.883719 -4.20646,4.206979 0,2.32326 1.8832,4.20647 4.20646,4.20647 v -0.007 h 79.89952 c 1.831595,-0.0225 3.306065,-1.53956 3.867095,-2.70748 0.2709,-0.41258 0.57801,-0.594 0.95915,-0.57279 0,0 29.628369,-0.19359 30.039699,-0.19665 0.41133,-0.003 1.65271,-0.0878 2.16976,0.3602 0.51706,0.44802 1.9169,1.25528 3.23225,-0.0228 0.52284,-0.40768 1.10411,-0.49535 1.53305,-0.0149 0.42893,0.48045 1.03928,0.46988 1.42817,0.30432 0.38888,-0.16556 0.48794,-0.258 0.64051,-0.43858 0.43436,-0.51412 0.21093,-1.03611 -0.60734,-0.76818 -0.3904,0.1592 -0.58458,0.40836 -1.12597,-0.15124 -0.54139,-0.5596 -1.51225,-0.84935 -2.31426,-0.0808 -0.66364,0.78427 -1.4342,0.52348 -1.8348,0.15968 -0.96546,-0.95383 -1.9825,-0.93766 -3.16261,-0.98354 z"
       id="path934"
       sodipodi:nodetypes="cccccccsccccczzczzsczccc" />
  </g>
</svg>
