<?xml version="1.0" encoding="UTF-8" standalone="no"?>
<!-- Created with Inkscape (http://www.inkscape.org/) -->

<svg
   width="148mm"
   height="210mm"
   viewBox="0 0 148 210"
   version="1.1"
   id="svg1"
   inkscape:export-filename="SS3.png"
   inkscape:export-xdpi="96"
   inkscape:export-ydpi="96"
   inkscape:version="1.3.2 (091e20e, 2023-11-25, custom)"
   sodipodi:docname="SS6.svg"
   xmlns:inkscape="http://www.inkscape.org/namespaces/inkscape"
   xmlns:sodipodi="http://sodipodi.sourceforge.net/DTD/sodipodi-0.dtd"
   xmlns="http://www.w3.org/2000/svg"
   xmlns:svg="http://www.w3.org/2000/svg">
  <sodipodi:namedview
     id="namedview1"
     pagecolor="#ffffff"
     bordercolor="#000000"
     borderopacity="0.25"
     inkscape:showpageshadow="2"
     inkscape:pageopacity="0.0"
     inkscape:pagecheckerboard="0"
     inkscape:deskcolor="#d1d1d1"
     inkscape:document-units="mm"
     inkscape:export-bgcolor="#ffffffff"
     inkscape:zoom="0.65834035"
     inkscape:cx="397.21096"
     inkscape:cy="439.74215"
     inkscape:window-width="1920"
     inkscape:window-height="974"
     inkscape:window-x="-11"
     inkscape:window-y="-11"
     inkscape:window-maximized="1"
     inkscape:current-layer="layer1" />
  <defs
     id="defs1" />
  <g
     inkscape:label="Warstwa 1"
     inkscape:groupmode="layer"
     id="layer1">
    <path
       sodipodi:nodetypes="cccccccscccccccsccccccsccssc"
       id="path932"
       d="m 124.60011,85.164061 c -1.61441,-0.0171 -30.085018,-0.23229 -30.085018,-0.23229 -0.6313,-0.0559 -0.57817,-0.0632 -0.92224,-0.40562 -0.75299,-1.36676 -2.25057,-2.65578 -3.81744,-2.65578 v 0.007 H 9.8758822 v -0.007 c -2.32326,0 -4.2064601,1.88372 -4.2064601,4.20698 0,2.32326 1.8832001,4.20647 4.2064601,4.20647 v -0.007 H 89.775422 c 1.83159,-0.0225 3.30605,-1.53956 3.86708,-2.70748 0.2709,-0.41258 0.57802,-0.594 0.95916,-0.57279 l 32.094798,-0.13427 c 0.35495,0.0169 0.51756,0.18816 0.6831,0.29782 1.07131,0.82841 1.29614,1.20271 1.77259,1.2073 0.46195,0.004 0.75969,-0.30292 1.07208,-0.53248 0.52285,-0.40768 0.98524,-0.17553 1.22299,-0.002 0.57342,0.51414 0.91931,0.55346 1.45401,0.4981 0.56694,-0.16294 1.23617,-0.77145 0.9683,-1.16338 -0.17523,-0.1179 -0.44909,-0.15502 -0.65091,-0.0692 -0.46489,0.27844 -0.59064,0.26184 -1.02262,0.0167 -0.36284,-0.22687 -0.64271,-0.48648 -1.10925,-0.63921 -0.27553,-0.0902 -0.67636,0.0638 -1.03705,0.33882 -0.58613,0.38378 -0.89161,0.25218 -1.2922,-0.11162 -0.7178,-0.71448 -1.10512,-1.10752 -1.85438,-1.33085 -0.61587,-0.18357 -1.57686,-0.20044 -2.30301,-0.20812 z"
       style="display:inline;fill:#000000;fill-opacity:1;stroke:#000000;stroke-width:0.0867336;stroke-miterlimit:4;stroke-dasharray:none;stroke-opacity:1"
       inkscape:connector-curvature="0" />
  </g>
</svg>
