<?xml version="1.0" encoding="UTF-8" standalone="no"?>
<!-- Created with Inkscape (http://www.inkscape.org/) -->

<svg
   width="210mm"
   height="297mm"
   viewBox="0 0 210 297"
   version="1.1"
   id="svg1"
   inkscape:version="1.3.2 (091e20e, 2023-11-25, custom)"
   sodipodi:docname="SS1.svg"
   xmlns:inkscape="http://www.inkscape.org/namespaces/inkscape"
   xmlns:sodipodi="http://sodipodi.sourceforge.net/DTD/sodipodi-0.dtd"
   xmlns="http://www.w3.org/2000/svg"
   xmlns:svg="http://www.w3.org/2000/svg">
  <sodipodi:namedview
     id="namedview1"
     pagecolor="#ffffff"
     bordercolor="#666666"
     borderopacity="1.0"
     inkscape:showpageshadow="2"
     inkscape:pageopacity="0.0"
     inkscape:pagecheckerboard="0"
     inkscape:deskcolor="#d1d1d1"
     inkscape:document-units="mm"
     inkscape:zoom="0.66368547"
     inkscape:cx="346.5497"
     inkscape:cy="511.53749"
     inkscape:window-width="1920"
     inkscape:window-height="1001"
     inkscape:window-x="-9"
     inkscape:window-y="-9"
     inkscape:window-maximized="1"
     inkscape:current-layer="layer1" />
  <defs
     id="defs1" />
  <g
     inkscape:label="Layer 1"
     inkscape:groupmode="layer"
     id="layer1">
    <path
       inkscape:connector-curvature="0"
       style="display:inline;fill:#000000;fill-opacity:1;stroke:#000000;stroke-width:0.0867336;stroke-miterlimit:4;stroke-dasharray:none;stroke-opacity:1"
       d="m 104.13428,84.150348 c -0.26164,-0.21317 -0.7323,-0.62444 -0.75536,-0.96457 -0.0319,-0.46995 0.46692,-0.78915 0.63629,-0.93191 0.24138,-0.20347 0.3095,-0.49361 -0.0228,-0.8227 l -1.70875,-1.80648 c -0.4896,-0.34077 -0.84339,0.0896 -0.85547,0.87193 l -0.0415,2.68863 c -0.0325,2.10711 -0.0274,35.674252 -0.0274,35.674252 -0.0559,0.6313 -0.0632,0.57816 -0.40562,0.92224 -1.36676,0.75299 -2.65578,2.25057 -2.65578,3.81744 h 0.007 v 79.89952 h -0.007 c 0,2.32326 1.88372,4.20646 4.20698,4.20646 2.32326,0 4.20646,-1.8832 4.20646,-4.20646 h -0.007 v -79.89952 c -0.0225,-1.83159 -1.53955,-3.30606 -2.70747,-3.86709 -0.41258,-0.2709 -0.594,-0.57802 -0.57279,-0.95915 l 0.008,-17.42121 c 0.0242,-0.49252 0.39843,-0.87812 0.83722,-1.32722 0.43878,-0.449112 1.03388,-1.009462 0.10516,-1.802532 -0.92872,-0.79307 -0.53017,-1.39606 -0.2086,-1.81458 0.32157,-0.41852 0.94511,-0.7596 -0.0673,-1.60224 -1.01241,-0.84264 -0.77883,-1.41433 -0.44303,-1.69547 0.3358,-0.28114 1.21033,-1.00313 0.29606,-1.87924 -0.91427,-0.87611 -0.57091,-1.21864 0.24511,-1.84509 0.81602,-0.62645 0.64653,-1.08947 0.12722,-1.61393 -0.51931,-0.52447 -1.07245,-0.99737 -0.12862,-1.91843 0.94383,-0.92106 0.56213,-1.19494 -0.061,-1.70265 z"
       id="path942"
       sodipodi:nodetypes="cssccssccccccscccccczzzzzzzzzsc" />
  </g>
</svg>
